<svg width="21" height="22" viewBox="0 0 21 22" xmlns="http://www.w3.org/2000/svg">
    <path d="m7.967 0-.126.688L7.36 3.2a7.976 7.976 0 0 0-2.1 1.295L2.909 3.65l-.633-.212-.328.609-1.62 2.908L0 7.563l.48.449 1.822 1.666c-.067.433-.152.866-.152 1.322 0 .456.085.89.152 1.322L.48 13.988l-.481.45.329.608 1.619 2.908.328.608.633-.211 2.352-.846a7.976 7.976 0 0 0 2.1 1.295l.48 2.512.126.688h4.553l.126-.688.48-2.512a7.976 7.976 0 0 0 2.1-1.295l2.352.846.633.212.329-.609 1.618-2.908.329-.608-.48-.45-1.822-1.666c.067-.433.152-.866.152-1.322 0-.456-.085-.89-.152-1.322l1.821-1.666.481-.45-.329-.608-1.618-2.908-.33-.609-.632.212-2.352.846a7.976 7.976 0 0 0-2.1-1.295l-.48-2.513L12.52 0H7.967zm1.315 1.692h1.923l.404 2.195.101.502.456.16c.92.3 1.754.809 2.453 1.48l.354.344.456-.16 2.048-.74.961 1.72L16.82 8.7l-.38.317.127.502c.104.483.151.975.151 1.481 0 .506-.047.998-.151 1.48l-.101.503.354.317 1.618 1.508-.96 1.718-2.05-.74-.455-.159-.354.344a6.427 6.427 0 0 1-2.453 1.48l-.456.16-.1.502-.405 2.195H9.282l-.404-2.195-.101-.502-.456-.16c-.92-.3-1.754-.809-2.453-1.48l-.354-.344-.455.16-2.05.74-.96-1.72L3.667 13.3l.38-.317-.127-.502A6.978 6.978 0 0 1 3.77 11c0-.506.047-.998.151-1.48l.127-.503-.38-.317L2.05 7.192l.96-1.718 2.05.74.455.159.354-.344a6.427 6.427 0 0 1 2.453-1.48l.456-.16.1-.502.405-2.195zm.962 5.077C8.018 6.77 6.197 8.673 6.197 11s1.82 4.23 4.047 4.23c2.225 0 4.046-1.903 4.046-4.23 0-2.327-1.82-4.23-4.046-4.23zm0 1.693c1.35 0 2.428 1.127 2.428 2.538 0 1.411-1.078 2.538-2.428 2.538-1.35 0-2.429-1.127-2.429-2.538 0-1.411 1.079-2.538 2.429-2.538z" fill="#FFF" fill-rule="nonzero"/>
</svg>
