<?xml version="1.0" encoding="utf-8"?>
<!-- Generator: Adobe Illustrator 24.2.1, SVG Export Plug-In . SVG Version: 6.00 Build 0)  -->
<svg version="1.1" id="Capa_1" xmlns="http://www.w3.org/2000/svg" xmlns:xlink="http://www.w3.org/1999/xlink" x="0px" y="0px"
	 viewBox="0 0 8410 405.4" style="enable-background:new 0 0 8410 405.4;" xml:space="preserve">
<style type="text/css">
	.st0{fill:#FFFFFF;}
</style>
<g>
	<rect x="70.9" y="154" class="st0" width="12.7" height="118"/>
	<rect x="98.7" y="168.7" class="st0" width="12.7" height="88.5"/>
	<rect x="126.6" y="154" class="st0" width="12.7" height="118"/>
	<rect x="154.4" y="99.6" class="st0" width="12.7" height="223.1"/>
	<rect x="182.2" y="131.4" class="st0" width="12.7" height="163.1"/>
	<rect x="432.7" y="99.6" class="st0" width="12.7" height="223.1"/>
	<rect x="460.5" y="143.1" class="st0" width="12.7" height="139.8"/>
	<rect x="488.3" y="180.4" class="st0" width="12.7" height="65.2"/>
	<rect x="516.1" y="160.9" class="st0" width="12.7" height="104.1"/>
	<rect x="544" y="106.1" class="st0" width="12.7" height="213.8"/>
	<rect x="571.8" y="168.7" class="st0" width="12.7" height="88.5"/>
	<rect x="599.6" y="143.1" class="st0" width="12.7" height="139.8"/>
	<rect x="627.4" y="99.6" class="st0" width="12.7" height="226.8"/>
	<rect x="655.3" y="143.1" class="st0" width="12.7" height="132.8"/>
	<rect x="683.1" y="175.5" class="st0" width="12.7" height="67.9"/>
	<rect x="710.9" y="189.4" class="st0" width="12.7" height="40.1"/>
	<rect x="43.1" y="180.4" class="st0" width="12.7" height="58.2"/>
	<rect x="321.4" y="99.6" class="st0" width="12.7" height="223.1"/>
	<rect x="349.2" y="131.4" class="st0" width="12.7" height="163.1"/>
	<rect x="210" y="168.7" class="st0" width="12.7" height="88.5"/>
	<rect x="237.9" y="180.4" class="st0" width="12.7" height="65.2"/>
	<rect x="377" y="168.7" class="st0" width="12.7" height="88.5"/>
	<rect x="404.8" y="143.1" class="st0" width="12.7" height="139.8"/>
	<rect x="265.7" y="160.9" class="st0" width="12.7" height="104.1"/>
	<rect x="293.5" y="143.1" class="st0" width="12.7" height="139.8"/>
	<rect x="766.6" y="154" class="st0" width="12.7" height="118"/>
	<rect x="794.4" y="168.7" class="st0" width="12.7" height="88.5"/>
	<rect x="822.2" y="154" class="st0" width="12.7" height="118"/>
	<rect x="850" y="99.6" class="st0" width="12.7" height="223.1"/>
	<rect x="877.9" y="131.4" class="st0" width="12.7" height="163.1"/>
	<rect x="1128.3" y="99.6" class="st0" width="12.7" height="223.1"/>
	<rect x="1156.1" y="143.1" class="st0" width="12.7" height="139.8"/>
	<rect x="1184" y="180.4" class="st0" width="12.7" height="65.2"/>
	<rect x="1211.8" y="160.9" class="st0" width="12.7" height="104.1"/>
	<rect x="1239.6" y="106.1" class="st0" width="12.7" height="213.8"/>
	<rect x="1267.4" y="168.7" class="st0" width="12.7" height="88.5"/>
	<rect x="1295.3" y="143.1" class="st0" width="12.7" height="139.8"/>
	<rect x="1323.1" y="99.6" class="st0" width="12.7" height="226.8"/>
	<rect x="1350.9" y="143.1" class="st0" width="12.7" height="132.8"/>
	<rect x="1378.7" y="175.5" class="st0" width="12.7" height="67.9"/>
	<rect x="1406.6" y="189.4" class="st0" width="12.7" height="40.1"/>
	<rect x="738.7" y="180.4" class="st0" width="12.7" height="58.2"/>
	<rect x="1017" y="99.6" class="st0" width="12.7" height="223.1"/>
	<rect x="1044.8" y="131.4" class="st0" width="12.7" height="163.1"/>
	<rect x="905.7" y="168.7" class="st0" width="12.7" height="88.5"/>
	<rect x="933.5" y="180.4" class="st0" width="12.7" height="65.2"/>
	<rect x="1072.7" y="168.7" class="st0" width="12.7" height="88.5"/>
	<rect x="1100.5" y="143.1" class="st0" width="12.7" height="139.8"/>
	<rect x="961.4" y="160.9" class="st0" width="12.7" height="104.1"/>
	<rect x="989.2" y="143.1" class="st0" width="12.7" height="139.8"/>
	<rect x="1462.2" y="154" class="st0" width="12.7" height="118"/>
	<rect x="1490" y="168.7" class="st0" width="12.7" height="88.5"/>
	<rect x="1517.9" y="154" class="st0" width="12.7" height="118"/>
	<rect x="1545.7" y="99.6" class="st0" width="12.7" height="223.1"/>
	<rect x="1573.5" y="131.4" class="st0" width="12.7" height="163.1"/>
	<rect x="1824" y="99.6" class="st0" width="12.7" height="223.1"/>
	<rect x="1851.8" y="143.1" class="st0" width="12.7" height="139.8"/>
	<rect x="1879.6" y="180.4" class="st0" width="12.7" height="65.2"/>
	<rect x="1907.4" y="160.9" class="st0" width="12.7" height="104.1"/>
	<rect x="1935.3" y="106.1" class="st0" width="12.7" height="213.8"/>
	<rect x="1963.1" y="168.7" class="st0" width="12.7" height="88.5"/>
	<rect x="1990.9" y="143.1" class="st0" width="12.7" height="139.8"/>
	<rect x="2018.7" y="99.6" class="st0" width="12.7" height="226.8"/>
	<rect x="2046.6" y="143.1" class="st0" width="12.7" height="132.8"/>
	<rect x="2074.4" y="175.5" class="st0" width="12.7" height="67.9"/>
	<rect x="2102.2" y="189.4" class="st0" width="12.7" height="40.1"/>
	<rect x="1434.4" y="180.4" class="st0" width="12.7" height="58.2"/>
	<rect x="1712.7" y="99.6" class="st0" width="12.7" height="223.1"/>
	<rect x="1740.5" y="131.4" class="st0" width="12.7" height="163.1"/>
	<rect x="1601.4" y="168.7" class="st0" width="12.7" height="88.5"/>
	<rect x="1629.2" y="180.4" class="st0" width="12.7" height="65.2"/>
	<rect x="1768.3" y="168.7" class="st0" width="12.7" height="88.5"/>
	<rect x="1796.1" y="143.1" class="st0" width="12.7" height="139.8"/>
	<rect x="1657" y="160.9" class="st0" width="12.7" height="104.1"/>
	<rect x="1684.8" y="143.1" class="st0" width="12.7" height="139.8"/>
	<rect x="2157.9" y="154" class="st0" width="12.7" height="118"/>
	<rect x="2185.7" y="168.7" class="st0" width="12.7" height="88.5"/>
	<rect x="2213.5" y="154" class="st0" width="12.7" height="118"/>
	<rect x="2241.4" y="99.6" class="st0" width="12.7" height="223.1"/>
	<rect x="2269.2" y="131.4" class="st0" width="12.7" height="163.1"/>
	<rect x="2519.6" y="99.6" class="st0" width="12.7" height="223.1"/>
	<rect x="2547.4" y="143.1" class="st0" width="12.7" height="139.8"/>
	<rect x="2575.3" y="180.4" class="st0" width="12.7" height="65.2"/>
	<rect x="2603.1" y="160.9" class="st0" width="12.7" height="104.1"/>
	<rect x="2630.9" y="106.1" class="st0" width="12.7" height="213.8"/>
	<rect x="2658.7" y="168.7" class="st0" width="12.7" height="88.5"/>
	<rect x="2686.6" y="143.1" class="st0" width="12.7" height="139.8"/>
	<rect x="2714.4" y="99.6" class="st0" width="12.7" height="226.8"/>
	<rect x="2742.2" y="143.1" class="st0" width="12.7" height="132.8"/>
	<rect x="2770.1" y="175.5" class="st0" width="12.7" height="67.9"/>
	<rect x="2797.9" y="189.4" class="st0" width="12.7" height="40.1"/>
	<rect x="2130.1" y="180.4" class="st0" width="12.7" height="58.2"/>
	<rect x="2408.3" y="99.6" class="st0" width="12.7" height="223.1"/>
	<rect x="2436.1" y="131.4" class="st0" width="12.7" height="163.1"/>
	<rect x="2297" y="168.7" class="st0" width="12.7" height="88.5"/>
	<rect x="2324.8" y="180.4" class="st0" width="12.7" height="65.2"/>
	<rect x="2464" y="168.7" class="st0" width="12.7" height="88.5"/>
	<rect x="2491.8" y="143.1" class="st0" width="12.7" height="139.8"/>
	<rect x="2352.7" y="160.9" class="st0" width="12.7" height="104.1"/>
	<rect x="2380.5" y="143.1" class="st0" width="12.7" height="139.8"/>
	<rect x="2853.5" y="154" class="st0" width="12.7" height="118"/>
	<rect x="2881.4" y="168.7" class="st0" width="12.7" height="88.5"/>
	<rect x="2909.2" y="154" class="st0" width="12.7" height="118"/>
	<rect x="2937" y="99.6" class="st0" width="12.7" height="223.1"/>
	<rect x="2964.8" y="131.4" class="st0" width="12.7" height="163.1"/>
	<rect x="3215.3" y="99.6" class="st0" width="12.7" height="223.1"/>
	<rect x="3243.1" y="143.1" class="st0" width="12.7" height="139.8"/>
	<rect x="3270.9" y="180.4" class="st0" width="12.7" height="65.2"/>
	<rect x="3298.7" y="160.9" class="st0" width="12.7" height="104.1"/>
	<rect x="3326.6" y="106.1" class="st0" width="12.7" height="213.8"/>
	<rect x="3354.4" y="168.7" class="st0" width="12.7" height="88.5"/>
	<rect x="3382.2" y="143.1" class="st0" width="12.7" height="139.8"/>
	<rect x="3410.1" y="99.6" class="st0" width="12.7" height="226.8"/>
	<rect x="3437.9" y="143.1" class="st0" width="12.7" height="132.8"/>
	<rect x="3465.7" y="175.5" class="st0" width="12.7" height="67.9"/>
	<rect x="3493.5" y="189.4" class="st0" width="12.7" height="40.1"/>
	<rect x="2825.7" y="180.4" class="st0" width="12.7" height="58.2"/>
	<rect x="3104" y="99.6" class="st0" width="12.7" height="223.1"/>
	<rect x="3131.8" y="131.4" class="st0" width="12.7" height="163.1"/>
	<rect x="2992.7" y="168.7" class="st0" width="12.7" height="88.5"/>
	<rect x="3020.5" y="180.4" class="st0" width="12.7" height="65.2"/>
	<rect x="3159.6" y="168.7" class="st0" width="12.7" height="88.5"/>
	<rect x="3187.4" y="143.1" class="st0" width="12.7" height="139.8"/>
	<rect x="3048.3" y="160.9" class="st0" width="12.7" height="104.1"/>
	<rect x="3076.1" y="143.1" class="st0" width="12.7" height="139.8"/>
	<rect x="3549.2" y="154" class="st0" width="12.7" height="118"/>
	<rect x="3577" y="168.7" class="st0" width="12.7" height="88.5"/>
	<rect x="3604.8" y="154" class="st0" width="12.7" height="118"/>
	<rect x="3632.7" y="99.6" class="st0" width="12.7" height="223.1"/>
	<rect x="3660.5" y="131.4" class="st0" width="12.7" height="163.1"/>
	<rect x="3910.9" y="99.6" class="st0" width="12.7" height="223.1"/>
	<rect x="3938.8" y="143.1" class="st0" width="12.7" height="139.8"/>
	<rect x="3966.6" y="180.4" class="st0" width="12.7" height="65.2"/>
	<rect x="3994.4" y="160.9" class="st0" width="12.7" height="104.1"/>
	<rect x="4022.2" y="106.1" class="st0" width="12.7" height="213.8"/>
	<rect x="4050.1" y="168.7" class="st0" width="12.7" height="88.5"/>
	<rect x="4077.9" y="143.1" class="st0" width="12.7" height="139.8"/>
	<rect x="4105.7" y="99.6" class="st0" width="12.7" height="226.8"/>
	<rect x="4133.5" y="143.1" class="st0" width="12.7" height="132.8"/>
	<rect x="4161.4" y="175.5" class="st0" width="12.7" height="67.9"/>
	<rect x="4189.2" y="189.4" class="st0" width="12.7" height="40.1"/>
	<rect x="3521.4" y="180.4" class="st0" width="12.7" height="58.2"/>
	<rect x="3799.6" y="99.6" class="st0" width="12.7" height="223.1"/>
	<rect x="3827.4" y="131.4" class="st0" width="12.7" height="163.1"/>
	<rect x="3688.3" y="168.7" class="st0" width="12.7" height="88.5"/>
	<rect x="3716.1" y="180.4" class="st0" width="12.7" height="65.2"/>
	<rect x="3855.3" y="168.7" class="st0" width="12.7" height="88.5"/>
	<rect x="3883.1" y="143.1" class="st0" width="12.7" height="139.8"/>
	<rect x="3744" y="160.9" class="st0" width="12.7" height="104.1"/>
	<rect x="3771.8" y="143.1" class="st0" width="12.7" height="139.8"/>
</g>
<g>
	<rect x="4244.7" y="154" class="st0" width="12.7" height="118"/>
	<rect x="4272.6" y="168.7" class="st0" width="12.7" height="88.5"/>
	<rect x="4300.4" y="154" class="st0" width="12.7" height="118"/>
	<rect x="4328.2" y="99.6" class="st0" width="12.7" height="223.1"/>
	<rect x="4356" y="131.4" class="st0" width="12.7" height="163.1"/>
	<rect x="4606.5" y="99.6" class="st0" width="12.7" height="223.1"/>
	<rect x="4634.3" y="143.1" class="st0" width="12.7" height="139.8"/>
	<rect x="4662.1" y="180.4" class="st0" width="12.7" height="65.2"/>
	<rect x="4690" y="160.9" class="st0" width="12.7" height="104.1"/>
	<rect x="4717.8" y="106.1" class="st0" width="12.7" height="213.8"/>
	<rect x="4745.6" y="168.7" class="st0" width="12.7" height="88.5"/>
	<rect x="4773.4" y="143.1" class="st0" width="12.7" height="139.8"/>
	<rect x="4801.3" y="99.6" class="st0" width="12.7" height="226.8"/>
	<rect x="4829.1" y="143.1" class="st0" width="12.7" height="132.8"/>
	<rect x="4856.9" y="175.5" class="st0" width="12.7" height="67.9"/>
	<rect x="4884.7" y="189.4" class="st0" width="12.7" height="40.1"/>
	<rect x="4216.9" y="180.4" class="st0" width="12.7" height="58.2"/>
	<rect x="4495.2" y="99.6" class="st0" width="12.7" height="223.1"/>
	<rect x="4523" y="131.4" class="st0" width="12.7" height="163.1"/>
	<rect x="4383.9" y="168.7" class="st0" width="12.7" height="88.5"/>
	<rect x="4411.7" y="180.4" class="st0" width="12.7" height="65.2"/>
	<rect x="4550.8" y="168.7" class="st0" width="12.7" height="88.5"/>
	<rect x="4578.6" y="143.1" class="st0" width="12.7" height="139.8"/>
	<rect x="4439.5" y="160.9" class="st0" width="12.7" height="104.1"/>
	<rect x="4467.3" y="143.1" class="st0" width="12.7" height="139.8"/>
	<rect x="4940.4" y="154" class="st0" width="12.7" height="118"/>
	<rect x="4968.2" y="168.7" class="st0" width="12.7" height="88.5"/>
	<rect x="4996" y="154" class="st0" width="12.7" height="118"/>
	<rect x="5023.9" y="99.6" class="st0" width="12.7" height="223.1"/>
	<rect x="5051.7" y="131.4" class="st0" width="12.7" height="163.1"/>
	<rect x="5302.1" y="99.6" class="st0" width="12.7" height="223.1"/>
	<rect x="5330" y="143.1" class="st0" width="12.7" height="139.8"/>
	<rect x="5357.8" y="180.4" class="st0" width="12.7" height="65.2"/>
	<rect x="5385.6" y="160.9" class="st0" width="12.7" height="104.1"/>
	<rect x="5413.4" y="106.1" class="st0" width="12.7" height="213.8"/>
	<rect x="5441.3" y="168.7" class="st0" width="12.7" height="88.5"/>
	<rect x="5469.1" y="143.1" class="st0" width="12.7" height="139.8"/>
	<rect x="5496.9" y="99.6" class="st0" width="12.7" height="226.8"/>
	<rect x="5524.7" y="143.1" class="st0" width="12.7" height="132.8"/>
	<rect x="5552.6" y="175.5" class="st0" width="12.7" height="67.9"/>
	<rect x="5580.4" y="189.4" class="st0" width="12.7" height="40.1"/>
	<rect x="4912.6" y="180.4" class="st0" width="12.7" height="58.2"/>
	<rect x="5190.8" y="99.6" class="st0" width="12.7" height="223.1"/>
	<rect x="5218.7" y="131.4" class="st0" width="12.7" height="163.1"/>
	<rect x="5079.5" y="168.7" class="st0" width="12.7" height="88.5"/>
	<rect x="5107.3" y="180.4" class="st0" width="12.7" height="65.2"/>
	<rect x="5246.5" y="168.7" class="st0" width="12.7" height="88.5"/>
	<rect x="5274.3" y="143.1" class="st0" width="12.7" height="139.8"/>
	<rect x="5135.2" y="160.9" class="st0" width="12.7" height="104.1"/>
	<rect x="5163" y="143.1" class="st0" width="12.7" height="139.8"/>
	<rect x="5636" y="154" class="st0" width="12.7" height="118"/>
	<rect x="5663.9" y="168.7" class="st0" width="12.7" height="88.5"/>
	<rect x="5691.7" y="154" class="st0" width="12.7" height="118"/>
	<rect x="5719.5" y="99.6" class="st0" width="12.7" height="223.1"/>
	<rect x="5747.3" y="131.4" class="st0" width="12.7" height="163.1"/>
	<rect x="5997.8" y="99.6" class="st0" width="12.7" height="223.1"/>
	<rect x="6025.6" y="143.1" class="st0" width="12.7" height="139.8"/>
	<rect x="6053.4" y="180.4" class="st0" width="12.7" height="65.2"/>
	<rect x="6081.3" y="160.9" class="st0" width="12.7" height="104.1"/>
	<rect x="6109.1" y="106.1" class="st0" width="12.7" height="213.8"/>
	<rect x="6136.9" y="168.7" class="st0" width="12.7" height="88.5"/>
	<rect x="6164.7" y="143.1" class="st0" width="12.7" height="139.8"/>
	<rect x="6192.6" y="99.6" class="st0" width="12.7" height="226.8"/>
	<rect x="6220.4" y="143.1" class="st0" width="12.7" height="132.8"/>
	<rect x="6248.2" y="175.5" class="st0" width="12.7" height="67.9"/>
	<rect x="6276" y="189.4" class="st0" width="12.7" height="40.1"/>
	<rect x="5608.2" y="180.4" class="st0" width="12.7" height="58.2"/>
	<rect x="5886.5" y="99.6" class="st0" width="12.7" height="223.1"/>
	<rect x="5914.3" y="131.4" class="st0" width="12.7" height="163.1"/>
	<rect x="5775.2" y="168.7" class="st0" width="12.7" height="88.5"/>
	<rect x="5803" y="180.4" class="st0" width="12.7" height="65.2"/>
	<rect x="5942.1" y="168.7" class="st0" width="12.7" height="88.5"/>
	<rect x="5970" y="143.1" class="st0" width="12.7" height="139.8"/>
	<rect x="5830.8" y="160.9" class="st0" width="12.7" height="104.1"/>
	<rect x="5858.7" y="143.1" class="st0" width="12.7" height="139.8"/>
	<rect x="6331.7" y="154" class="st0" width="12.7" height="118"/>
	<rect x="6359.5" y="168.7" class="st0" width="12.7" height="88.5"/>
	<rect x="6387.3" y="154" class="st0" width="12.7" height="118"/>
	<rect x="6415.2" y="99.6" class="st0" width="12.7" height="223.1"/>
	<rect x="6443" y="131.4" class="st0" width="12.7" height="163.1"/>
	<rect x="6693.4" y="99.6" class="st0" width="12.7" height="223.1"/>
	<rect x="6721.3" y="143.1" class="st0" width="12.7" height="139.8"/>
	<rect x="6749.1" y="180.4" class="st0" width="12.7" height="65.2"/>
	<rect x="6776.9" y="160.9" class="st0" width="12.7" height="104.1"/>
	<rect x="6804.7" y="106.1" class="st0" width="12.7" height="213.8"/>
	<rect x="6832.6" y="168.7" class="st0" width="12.7" height="88.5"/>
	<rect x="6860.4" y="143.1" class="st0" width="12.7" height="139.8"/>
	<rect x="6888.2" y="99.6" class="st0" width="12.7" height="226.8"/>
	<rect x="6916" y="143.1" class="st0" width="12.7" height="132.8"/>
	<rect x="6943.9" y="175.5" class="st0" width="12.7" height="67.9"/>
	<rect x="6971.7" y="189.4" class="st0" width="12.7" height="40.1"/>
	<rect x="6303.9" y="180.4" class="st0" width="12.7" height="58.2"/>
	<rect x="6582.1" y="99.6" class="st0" width="12.7" height="223.1"/>
	<rect x="6610" y="131.4" class="st0" width="12.7" height="163.1"/>
	<rect x="6470.8" y="168.7" class="st0" width="12.7" height="88.5"/>
	<rect x="6498.7" y="180.4" class="st0" width="12.7" height="65.2"/>
	<rect x="6637.8" y="168.7" class="st0" width="12.7" height="88.5"/>
	<rect x="6665.6" y="143.1" class="st0" width="12.7" height="139.8"/>
	<rect x="6526.5" y="160.9" class="st0" width="12.7" height="104.1"/>
	<rect x="6554.3" y="143.1" class="st0" width="12.7" height="139.8"/>
	<rect x="7027.4" y="154" class="st0" width="12.7" height="118"/>
	<rect x="7055.2" y="168.7" class="st0" width="12.7" height="88.5"/>
	<rect x="7083" y="154" class="st0" width="12.7" height="118"/>
	<rect x="7110.8" y="99.6" class="st0" width="12.7" height="223.1"/>
	<rect x="7138.7" y="131.4" class="st0" width="12.7" height="163.1"/>
	<rect x="7389.1" y="99.6" class="st0" width="12.7" height="223.1"/>
	<rect x="7416.9" y="143.1" class="st0" width="12.7" height="139.8"/>
	<rect x="7444.7" y="180.4" class="st0" width="12.7" height="65.2"/>
	<rect x="7472.6" y="160.9" class="st0" width="12.7" height="104.1"/>
	<rect x="7500.4" y="106.1" class="st0" width="12.7" height="213.8"/>
	<rect x="7528.2" y="168.7" class="st0" width="12.7" height="88.5"/>
	<rect x="7556" y="143.1" class="st0" width="12.7" height="139.8"/>
	<rect x="7583.9" y="99.6" class="st0" width="12.7" height="226.8"/>
	<rect x="7611.7" y="143.1" class="st0" width="12.7" height="132.8"/>
	<rect x="7639.5" y="175.5" class="st0" width="12.7" height="67.9"/>
	<rect x="7667.4" y="189.4" class="st0" width="12.7" height="40.1"/>
	<rect x="6999.5" y="180.4" class="st0" width="12.7" height="58.2"/>
	<rect x="7277.8" y="99.6" class="st0" width="12.7" height="223.1"/>
	<rect x="7305.6" y="131.4" class="st0" width="12.7" height="163.1"/>
	<rect x="7166.5" y="168.7" class="st0" width="12.7" height="88.5"/>
	<rect x="7194.3" y="180.4" class="st0" width="12.7" height="65.2"/>
	<rect x="7333.4" y="168.7" class="st0" width="12.7" height="88.5"/>
	<rect x="7361.3" y="143.1" class="st0" width="12.7" height="139.8"/>
	<rect x="7222.1" y="160.9" class="st0" width="12.7" height="104.1"/>
	<rect x="7250" y="143.1" class="st0" width="12.7" height="139.8"/>
	<rect x="7723" y="154" class="st0" width="12.7" height="118"/>
	<rect x="7750.8" y="168.7" class="st0" width="12.7" height="88.5"/>
	<rect x="7778.7" y="154" class="st0" width="12.7" height="118"/>
	<rect x="7806.5" y="99.6" class="st0" width="12.7" height="223.1"/>
	<rect x="7834.3" y="131.4" class="st0" width="12.7" height="163.1"/>
	<rect x="8084.7" y="99.6" class="st0" width="12.7" height="223.1"/>
	<rect x="8112.6" y="143.1" class="st0" width="12.7" height="139.8"/>
	<rect x="8140.4" y="180.4" class="st0" width="12.7" height="65.2"/>
	<rect x="8168.2" y="160.9" class="st0" width="12.7" height="104.1"/>
	<rect x="8196" y="106.1" class="st0" width="12.7" height="213.8"/>
	<rect x="8223.9" y="168.7" class="st0" width="12.7" height="88.5"/>
	<rect x="8251.7" y="143.1" class="st0" width="12.7" height="139.8"/>
	<rect x="8279.5" y="99.6" class="st0" width="12.7" height="226.8"/>
	<rect x="8307.4" y="143.1" class="st0" width="12.7" height="132.8"/>
	<rect x="8335.2" y="175.5" class="st0" width="12.7" height="67.9"/>
	<rect x="8363" y="189.4" class="st0" width="12.7" height="40.1"/>
	<rect x="7695.2" y="180.4" class="st0" width="12.7" height="58.2"/>
	<rect x="7973.4" y="99.6" class="st0" width="12.7" height="223.1"/>
	<rect x="8001.3" y="131.4" class="st0" width="12.7" height="163.1"/>
	<rect x="7862.1" y="168.7" class="st0" width="12.7" height="88.5"/>
	<rect x="7890" y="180.4" class="st0" width="12.7" height="65.2"/>
	<rect x="8029.1" y="168.7" class="st0" width="12.7" height="88.5"/>
	<rect x="8056.9" y="143.1" class="st0" width="12.7" height="139.8"/>
	<rect x="7917.8" y="160.9" class="st0" width="12.7" height="104.1"/>
	<rect x="7945.6" y="143.1" class="st0" width="12.7" height="139.8"/>
</g>
</svg>
