<svg width="26" height="22" viewBox="0 0 26 22" xmlns="http://www.w3.org/2000/svg">
    <path d="M14 0v22l-8.75-6.286H0V6.286h5.25L14 0zm8.848 2.693C24.845 5.098 26 7.946 26 11c0 3.241-1.302 6.251-3.53 8.744l-.25.275-1.412-1.098c2.044-2.254 3.24-4.982 3.24-7.921 0-2.63-.958-5.092-2.624-7.196l1.424-1.11zM12 18.101V3.898L5.894 8.286 2 8.285v5.429h3.894L12 18.101zm7.455-12.505A10.251 10.251 0 0 1 21 11a10.24 10.24 0 0 1-1.457 5.258l-.191.31-1.275-1.13A8.772 8.772 0 0 0 19.286 11a8.76 8.76 0 0 0-1.112-4.268l1.28-1.136z" fill="#FFF" fill-rule="nonzero"/>
</svg>
