<svg width="106" height="45" viewBox="0 0 106 45" fill="none" xmlns="http://www.w3.org/2000/svg">
<path d="M2.626 22.804L3.511 20.646L4.397 22.804H2.626ZM2.854 18.884L0 25.593H1.494L2.1 24.098H4.915L5.521 25.593H7.052L4.198 18.884H2.854Z" fill="white"/>
<path d="M6.75293 20.2861H8.78093V25.5931H10.2469V20.2861H12.2719V18.9331H6.75293V20.2861Z" fill="white"/>
<path d="M17.4681 21.228C17.4681 21.79 17.0601 22.166 16.3441 22.166H14.8611V20.253H16.3171C17.0311 20.253 17.4681 20.57 17.4681 21.205V21.228ZM18.9521 21.152V21.131C18.9521 19.761 18.0111 18.936 16.4371 18.936H13.3921V25.598H14.8571V23.462H16.0091L17.4371 25.598H19.1491L17.5221 23.219C18.3721 22.904 18.9521 22.226 18.9521 21.152Z" fill="white"/>
<path d="M21.7289 22.8921H24.8709V21.5901H21.7289V20.2391H25.2989V18.9331H20.2739V25.5931H25.3459V24.2921H21.7289V22.8921Z" fill="white"/>
<path d="M29.351 21.607C28.203 21.312 27.913 21.169 27.913 20.732V20.711C27.913 20.387 28.208 20.1299 28.767 20.1299C29.33 20.1299 29.913 20.3779 30.498 20.7789L31.261 19.6749C30.584 19.1319 29.756 18.825 28.785 18.825C27.424 18.825 26.454 19.6279 26.454 20.8349V20.8559C26.454 22.1769 27.317 22.547 28.662 22.893C29.772 23.177 30.004 23.372 30.004 23.746V23.767C30.004 24.158 29.644 24.3939 29.043 24.3939C28.278 24.3939 27.65 24.081 27.055 23.582L26.189 24.6159C26.968 25.3059 27.974 25.6839 29.015 25.6789C30.453 25.6789 31.459 24.9389 31.459 23.6159V23.596C31.463 22.447 30.703 21.96 29.351 21.607Z" fill="white"/>
<path d="M36.069 21.7501L34.318 18.9331H32.739V25.5931H34.175V21.2771L36.031 24.0911H36.069L37.944 21.2471V25.5931H39.4V18.9331H37.821L36.069 21.7501Z" fill="white"/>
<path d="M42.4541 22.8921H45.5931V21.5901H42.4541V20.2391H46.0211V18.9331H40.9971V25.5931H46.0691V24.2921H42.4541V22.8921Z" fill="white"/>
<path d="M51.9771 22.2841C51.9771 23.4711 51.1671 24.2701 49.9681 24.2701H48.8351V20.2521H49.9681C51.1671 20.2521 51.9771 21.0801 51.9771 22.2611V22.2841ZM49.9691 18.9331H47.3711V25.5951H49.9691C52.0641 25.5951 53.5101 24.1381 53.5101 22.2651V22.2441C53.5101 20.3721 52.0631 18.9331 49.9691 18.9331Z" fill="white"/>
<path d="M54.8779 18.9331H56.3439V25.5951H54.8779V18.9331Z" fill="white"/>
<path d="M60.065 22.804L60.953 20.646L61.838 22.804H60.065ZM60.293 18.884L57.439 25.593H58.933L59.541 24.098H62.354L62.962 25.593H64.493L61.639 18.884H60.293Z" fill="white"/>
<path d="M86.2329 29.656L96.2879 36.211L86.2329 44.482V29.656Z" fill="#B80000"/>
<path d="M86.2329 0L96.2879 8.265L86.2329 14.829V0Z" fill="#DB5B15"/>
<path d="M86.2329 14.8291L96.2879 22.2381L86.2329 29.6561V14.8291Z" fill="#DB5B15"/>
<path d="M96.2881 22.238L105.248 28.84L96.2881 36.211V22.238Z" fill="#DB5B15"/>
<path d="M96.2881 8.26489L105.248 15.6289L96.2881 22.2379V8.26489Z" fill="#C82C07"/>
<path d="M74.871 6.4541L71.25 8.5021L81.134 15.7891L86.233 14.8291L74.871 6.4541Z" fill="#B02304"/>
<path d="M81.134 15.7891L71.25 22.2431L74.871 22.2471L86.233 14.8291L81.134 15.7891Z" fill="#EAB85A"/>
<path d="M81.156 28.7039L71.25 22.2429L74.871 22.2469L86.233 29.6559L81.156 28.7039Z" fill="#B02304"/>
<path d="M81.156 28.7041L71.25 36.0171L74.871 38.0381L86.233 29.6561L81.156 28.7041Z" fill="#E7A93E"/>
<path d="M86.2331 0L74.8711 6.454L86.2331 14.829V0Z" fill="#E28D21"/>
<path d="M96.2879 8.26489L86.2329 14.8289L96.2879 22.2379V8.26489Z" fill="#DF761C"/>
<path d="M96.2879 22.238L86.2329 29.656L96.2879 36.211V22.238Z" fill="#C82C07"/>
<path d="M86.2331 14.8291L74.8711 22.2471L86.2331 29.6561V14.8291Z" fill="#DF761C"/>
<path d="M86.2331 29.656L74.8711 38.038L86.2331 44.482V29.656Z" fill="#DB5B15"/>
</svg>
